# xmcd
#
# Track frame offsets:
#	150
#	16875
#	34350
#	48992
#	66637
#	87882
#	100010
#	125217
#	138617
#	155992
#	177245
#
# Disc length: 2728 seconds
#
# Revision: 0
# Processed by: cddbd v1.4PL0 Copyright (c) Steve Scherf et al.
# Submitted via: EasyCDDAExtractor 4.6.0.1
#
DISCID=a10aa60b
DTITLE=Oiling Boiling - Blues Train
DYEAR=1993
DGENRE=Blues
TTITLE0=T-Bone Boogie
TTITLE1=Night Train
TTITLE2=In The Evening (When The Sun Goes Down)
TTITLE3=Things Ain't What They Used to Be (Coda: Splanky)
TTITLE4=I'm Ready
TTITLE5=Hello
TTITLE6=Watermelon Man
TTITLE7=Seventh Son
TTITLE8=I'm Still In Love With You
TTITLE9=Drum Boogie
TTITLE10=I Can't Turn You Loose
EXTD=
EXTT0=
EXTT1=
EXTT2=
EXTT3=
EXTT4=
EXTT5=
EXTT6=
EXTT7=
EXTT8=
EXTT9=
EXTT10=
PLAYORDER=
